<?xml version="1.0" encoding="UTF-8" standalone="no"?>
<!-- Created with Inkscape (http://www.inkscape.org/) -->
<svg
   xmlns:dc="http://purl.org/dc/elements/1.1/"
   xmlns:cc="http://web.resource.org/cc/"
   xmlns:rdf="http://www.w3.org/1999/02/22-rdf-syntax-ns#"
   xmlns:svg="http://www.w3.org/2000/svg"
   xmlns="http://www.w3.org/2000/svg"
   xmlns:sodipodi="http://sodipodi.sourceforge.net/DTD/sodipodi-0.dtd"
   xmlns:inkscape="http://www.inkscape.org/namespaces/inkscape"
   width="320"
   height="320"
   id="svg4177"
   sodipodi:version="0.32"
   inkscape:version="0.45"
   sodipodi:modified="TRUE"
   version="1.0"
   inkscape:export-filename="/tmp/gorf.png"
   inkscape:export-xdpi="140.625"
   inkscape:export-ydpi="140.625">
  <defs
     id="defs4179" />
  <sodipodi:namedview
     id="base"
     pagecolor="#ffffff"
     bordercolor="#666666"
     borderopacity="1.0"
     gridtolerance="10000"
     guidetolerance="10"
     objecttolerance="10"
     inkscape:pageopacity="0.0"
     inkscape:pageshadow="2"
     inkscape:zoom="1.0681152"
     inkscape:cx="246.46217"
     inkscape:cy="148.76672"
     inkscape:document-units="px"
     inkscape:current-layer="layer1"
     width="320px"
     height="320px" />
  <metadata
     id="metadata4182">
    <rdf:RDF>
      <cc:Work
         rdf:about="">
        <dc:format>image/svg+xml</dc:format>
        <dc:type
           rdf:resource="http://purl.org/dc/dcmitype/StillImage" />
      </cc:Work>
    </rdf:RDF>
  </metadata>
  <g
     inkscape:label="Layer 1"
     inkscape:groupmode="layer"
     id="layer1"
     transform="translate(-414.856,-374.50504)">
    <path
       id="path3201"
       style="fill:#000000;fill-opacity:1;fill-rule:evenodd;stroke:none;stroke-width:2;stroke-linecap:butt;stroke-linejoin:miter;stroke-miterlimit:4;stroke-dashoffset:4.99610029;stroke-opacity:1"
       d="M 519.80565,423.18847 C 494.80565,423.18847 479.80565,438.18847 479.80565,458.18847 C 479.80565,478.18847 498.15473,490.5281 504.80565,493.18847 C 514.80565,497.18847 524.08336,495.45451 532.47523,491.28584 C 547.91475,483.61626 553.98549,470.55337 574.51995,474.1549 C 602.61055,479.08171 623.66578,478.56461 631.2806,466.2797 C 651.40011,433.82111 629.93073,414.13544 603.24162,412.20676 C 583.30164,410.76581 574.80565,430.18847 559.80565,433.18847 C 549.80565,435.18847 544.80565,423.18847 519.80565,423.18847 z M 496.6188,493.21658 C 479.80565,483.18847 474.80565,472.76922 474.80565,458.18847 C 474.80565,436.10847 492.21688,418.18847 519.80565,418.18847 C 532.9231,418.18847 549.77805,428.17465 559.80565,428.18847 C 569.80565,428.20225 582.29488,408.18847 599.80565,408.18847 C 624.64565,408.18847 644.80565,423.86847 644.80565,443.18847 C 644.80565,452.09022 642.58743,461.0282 637.9962,468.18847 C 662.79926,480.70773 675.9944,494.84307 684.80565,518.18847 C 703.51769,567.76601 669.60172,625.61965 609.80565,648.18847 C 550.00958,670.75728 488.51769,647.76601 469.80565,598.18847 C 456.17846,562.08322 465.41457,522.3271 496.6188,493.21658 z M 673.46775,534.17279 C 684.54484,570.64814 655.49204,612.68808 608.61775,628.01193 C 561.74345,643.33579 514.71044,626.16936 503.63335,589.69401 C 492.55626,553.21866 521.60906,511.17872 568.48335,495.85487 C 615.35765,480.53101 662.39066,497.69744 673.46775,534.17279 z M 655.62677,564.51203 C 647.64238,590.8481 615.45312,611.92453 583.77573,611.55764 C 569.16736,611.38844 557.87907,607.31238 549.37884,599.13733 C 597.48897,611.5734 631.30737,588.87572 655.62677,564.51203 z M 634.80565,443.18847 C 634.80565,456.98847 621.36565,468.18847 604.80565,468.18847 C 588.24565,468.18847 574.80565,456.98847 574.80565,443.18847 C 574.80565,429.38847 588.24565,418.18847 604.80565,418.18847 C 621.36565,418.18847 634.80565,429.38847 634.80565,443.18847 z M 542.45841,436.41559 C 552.03942,448.49686 548.41643,466.53087 534.37139,476.67008 C 520.32634,486.8093 501.15158,485.23315 491.57057,473.15189 C 481.98956,461.07063 485.61255,443.03662 499.65759,432.8974 C 513.70264,422.75818 532.87741,424.33434 542.45841,436.41559 z M 529.80798,455.14604 C 533.98024,458.06344 535.1885,464.02927 532.50501,468.46264 C 529.82151,472.89601 524.25742,474.12636 520.08516,471.20897 C 515.9129,468.29157 514.70463,462.32574 517.38813,457.89237 C 520.07163,453.459 525.63572,452.22865 529.80798,455.14604 z M 607.64282,452.31054 C 607.03929,457.24802 602.34947,460.21377 597.17445,458.93054 C 591.99944,457.6473 588.28924,452.5986 588.89277,447.66113 C 589.49629,442.72365 594.18612,439.75789 599.36113,441.04113 C 604.53614,442.32437 608.24634,447.37306 607.64282,452.31054 z " />
  </g>
</svg>
